<?xml version="1.0"?>
<svg xmlns="http://www.w3.org/2000/svg" xmlns:xlink="http://www.w3.org/1999/xlink" xmlns:svgjs="http://svgjs.com/svgjs" version="1.1" width="512" height="512" x="0" y="0" viewBox="0 0 64 64" style="enable-background:new 0 0 512 512" xml:space="preserve" class=""><g><g xmlns="http://www.w3.org/2000/svg" id="Computer"><path d="m60 40h-56v5a3 3 0 0 0 3 3h50a3 3 0 0 0 3-3zm-28 7a3 3 0 1 1 3-3 3 3 0 0 1 -3 3z" fill="#ffffff" data-original="#000000" style="" class=""/><circle cx="32" cy="44" r="1" fill="#ffffff" data-original="#000000" style="" class=""/><path d="m46 59a1 1 0 0 0 -1-1h-26a1 1 0 0 0 -1 1v1h28z" fill="#ffffff" data-original="#000000" style="" class=""/><path d="m60 7a3 3 0 0 0 -3-3h-50a3 3 0 0 0 -3 3v31h56z" fill="#ffffff" data-original="#000000" style="" class=""/><path d="m25.693 50-2.25 6h17.114l-2.25-6z" fill="#ffffff" data-original="#000000" style="" class=""/></g></g></svg>
