<?xml version="1.0"?>
<svg xmlns="http://www.w3.org/2000/svg" xmlns:xlink="http://www.w3.org/1999/xlink" xmlns:svgjs="http://svgjs.com/svgjs" version="1.1" width="512" height="512" x="0" y="0" viewBox="0 0 512 512" style="enable-background:new 0 0 512 512" xml:space="preserve" class=""><g>
<g xmlns="http://www.w3.org/2000/svg">
	<g>
		<path d="M323.834,180.667H188.166c-8.271,0-15-6.761-15-15.07c0-8.271,6.729-15,15.004-15l286.33-0.074V90.197l-286.33,0.066    c-41.543,0-75.337,33.794-75.337,75.333c0,41.578,33.794,75.403,75.333,75.403h135.668c58.081,0,105.333,47.252,105.333,105.334    c0,58.081-47.252,105.333-105.333,105.333H37.5V512h286.334c91.349,0,165.666-74.318,165.666-165.667    S415.183,180.667,323.834,180.667z" fill="#ffffff" data-original="#000000" style="" class=""/>
	</g>
</g>
<g xmlns="http://www.w3.org/2000/svg">
	<g>
		<path d="M188.166,60.264L474.5,60.197V0H188.166C96.817,0,22.5,74.318,22.5,165.667s74.317,165.667,165.682,165.667l135.652-0.14    c8.271,0,15,6.729,15,15s-6.729,15-15,15H37.5v60.474h286.334v-0.001c41.539,0,75.333-33.794,75.333-75.333    c0-41.54-33.794-75.334-75.333-75.334H188.166c-58.081,0-105.333-47.284-105.333-105.403    C82.833,107.516,130.085,60.264,188.166,60.264z" fill="#ffffff" data-original="#000000" style="" class=""/>
	</g>
</g>
<g xmlns="http://www.w3.org/2000/svg">
</g>
<g xmlns="http://www.w3.org/2000/svg">
</g>
<g xmlns="http://www.w3.org/2000/svg">
</g>
<g xmlns="http://www.w3.org/2000/svg">
</g>
<g xmlns="http://www.w3.org/2000/svg">
</g>
<g xmlns="http://www.w3.org/2000/svg">
</g>
<g xmlns="http://www.w3.org/2000/svg">
</g>
<g xmlns="http://www.w3.org/2000/svg">
</g>
<g xmlns="http://www.w3.org/2000/svg">
</g>
<g xmlns="http://www.w3.org/2000/svg">
</g>
<g xmlns="http://www.w3.org/2000/svg">
</g>
<g xmlns="http://www.w3.org/2000/svg">
</g>
<g xmlns="http://www.w3.org/2000/svg">
</g>
<g xmlns="http://www.w3.org/2000/svg">
</g>
<g xmlns="http://www.w3.org/2000/svg">
</g>
</g></svg>
